<svg xmlns="http://www.w3.org/2000/svg" version="1.0" width="512.000000pt" height="512.000000pt" viewBox="0 0 512.000000 512.000000" preserveAspectRatio="xMidYMid meet">

<g transform="translate(0.000000,512.000000) scale(0.100000,-0.100000)" fill="#2196f3" stroke="none">
<path d="M2491 4788 c-47 -13 -1850 -1024 -1884 -1057 -16 -14 -39 -44 -50 -66 l-22 -40 0 -1060 0 -1060 24 -48 c12 -26 37 -58 55 -71 48 -37 1836 -1038 1881 -1054 50 -17 120 -10 174 17 103 53 1810 1015 1837 1036 18 14 43 46 55 72 l24 48 0 1060 0 1060 -22 40 c-11 22 -34 52 -50 67 -23 22 -498 290 -1696 959 -199 111 -238 123 -326 97z m210 -738 c410 -41 785 -247 1034 -565 90 -115 117 -161 102 -173 -26 -20 -620 -355 -631 -356 -7 0 -36 28 -65 64 -338 422 -1006 354 -1242 -125 -107 -217 -106 -454 1 -670 73 -149 169 -246 322 -325 205 -107 460 -109 670 -5 121 60 201 132 301 269 13 18 30 10 338 -159 178 -98 326 -179 328 -181 7 -7 -110 -172 -177 -249 -209 -241 -509 -415 -827 -480 -108 -22 -272 -32 -402 -23 -636 41 -1186 501 -1343 1123 -204 805 293 1625 1100 1820 174 41 320 52 491 35z m819 -1275 l0 -105 110 0 110 0 0 -110 0 -110 -110 0 -110 0 0 -105 0 -105 -110 0 -110 0 0 105 0 105 -105 0 -105 0 0 110 0 110 105 0 105 0 0 105 0 105 110 0 110 0 0 -105z m750 0 l0 -105 105 0 105 0 0 -110 0 -110 -105 0 -105 0 0 -105 0 -105 -110 0 -110 0 0 105 0 105 -105 0 -105 0 0 110 0 110 105 0 105 0 0 105 0 105 110 0 110 0 0 -105z" fill="#2196f3"/>
</g>
</svg>